<svg width="20" height="20" viewBox="0 0 20 20" fill="none" xmlns="http://www.w3.org/2000/svg">
<path fill-rule="evenodd" clip-rule="evenodd" d="M2 10C2 9.80109 2.07902 9.61033 2.21967 9.46968C2.36032 9.32902 2.55109 9.25001 2.75 9.25001H15.34L13.24 7.30001C13.1678 7.23303 13.1094 7.15249 13.0683 7.06297C13.0272 6.97345 13.0042 6.87672 13.0005 6.77829C12.9968 6.67986 13.0125 6.58166 13.0467 6.4893C13.0809 6.39694 13.133 6.31223 13.2 6.24001C13.3353 6.09414 13.5229 6.00797 13.7217 6.00047C13.8201 5.99676 13.9183 6.01247 14.0107 6.0467C14.1031 6.08094 14.1878 6.13303 14.26 6.20001L17.76 9.45001C17.8357 9.52021 17.8961 9.6053 17.9375 9.69994C17.9788 9.79459 18.0001 9.89674 18.0001 10C18.0001 10.1033 17.9788 10.2054 17.9375 10.3001C17.8961 10.3947 17.8357 10.4798 17.76 10.55L14.26 13.8C14.1141 13.9353 13.9205 14.007 13.7217 13.9995C13.5229 13.992 13.3353 13.9059 13.2 13.76C13.0647 13.6141 12.993 13.4205 13.0005 13.2217C13.008 13.0229 13.0941 12.8353 13.24 12.7L15.34 10.75H2.75C2.55109 10.75 2.36032 10.671 2.21967 10.5303C2.07902 10.3897 2 10.1989 2 10Z" fill="white"/>
</svg>
