<svg width="21" height="21" viewBox="0 0 21 21" fill="none" xmlns="http://www.w3.org/2000/svg">
<path fill-rule="evenodd" clip-rule="evenodd" d="M2.5 10.4999C2.5 10.301 2.57902 10.1103 2.71967 9.96961C2.86032 9.82896 3.05109 9.74994 3.25 9.74994H15.84L13.74 7.79994C13.6678 7.73297 13.6094 7.65243 13.5683 7.56291C13.5272 7.47339 13.5042 7.37666 13.5005 7.27823C13.4968 7.1798 13.5125 7.0816 13.5467 6.98924C13.5809 6.89688 13.633 6.81217 13.7 6.73994C13.8353 6.59408 14.0229 6.50791 14.2217 6.50041C14.3201 6.4967 14.4183 6.51241 14.5107 6.54664C14.6031 6.58088 14.6878 6.63297 14.76 6.69994L18.26 9.94994C18.3357 10.0202 18.3961 10.1052 18.4375 10.1999C18.4788 10.2945 18.5001 10.3967 18.5001 10.4999C18.5001 10.6032 18.4788 10.7054 18.4375 10.8C18.3961 10.8946 18.3357 10.9797 18.26 11.0499L14.76 14.2999C14.6141 14.4352 14.4205 14.507 14.2217 14.4995C14.0229 14.492 13.8353 14.4058 13.7 14.2599C13.5647 14.1141 13.493 13.9204 13.5005 13.7217C13.508 13.5229 13.5941 13.3352 13.74 13.1999L15.84 11.2499H3.25C3.05109 11.2499 2.86032 11.1709 2.71967 11.0303C2.57902 10.8896 2.5 10.6989 2.5 10.4999Z" fill="#CD7F32"/>
</svg>
