<svg width="21" height="21" viewBox="0 0 21 21" fill="none" xmlns="http://www.w3.org/2000/svg">
<path fill-rule="evenodd" clip-rule="evenodd" d="M7.87445 1.80756C6.31235 0.24546 3.77969 0.245464 2.21759 1.80756L1.68206 2.34309C0.943692 3.08146 0.438665 4.18793 0.726726 5.38653C1.16834 7.22404 2.49723 10.5725 6.46023 14.5355C10.4232 18.4985 13.7717 19.8274 15.6092 20.269C16.8078 20.5571 17.9143 20.052 18.6526 19.3137L19.1882 18.7781C20.7503 17.216 20.7503 14.6834 19.1882 13.1213L18.2593 12.1924C16.986 10.9191 15.0189 10.6536 13.4536 11.5437L13.3571 11.5985C12.7157 11.9633 11.9788 11.9335 11.4568 11.5557C11.0355 11.2508 10.6329 10.93 10.3493 10.6464C10.0657 10.3628 9.74489 9.96019 9.44004 9.53896C9.06224 9.01692 9.03243 8.28004 9.39717 7.63861L9.45206 7.54207C10.3421 5.97677 10.0766 4.0097 8.80332 2.73644L7.87445 1.80756ZM3.63181 3.22177C4.41286 2.44072 5.67918 2.44072 6.46023 3.22177L7.38911 4.15065C8.02574 4.78728 8.15851 5.77082 7.71348 6.55347L7.65859 6.65C6.95368 7.88966 6.92895 9.48053 7.81983 10.7115C8.14706 11.1637 8.54031 11.6658 8.93511 12.0606C9.3299 12.4554 9.83204 12.8487 10.2842 13.1759C11.5152 14.0668 13.1061 14.042 14.3457 13.3371L14.4422 13.2822C15.2249 12.8372 16.2084 12.97 16.8451 13.6066L17.7739 14.5355C18.555 15.3165 18.555 16.5829 17.7739 17.3639L17.2384 17.8994C16.8516 18.2863 16.4252 18.4082 16.0765 18.3244C14.6075 17.9713 11.5841 16.8309 7.87445 13.1213C4.16478 9.4116 3.02441 6.38822 2.67135 4.91918C2.58756 4.57053 2.70942 4.14416 3.09627 3.75731L3.63181 3.22177Z" fill="#1D1F21"/>
</svg>
