<svg width="20" height="20" viewBox="0 0 20 20" fill="none" xmlns="http://www.w3.org/2000/svg">
<path fill-rule="evenodd" clip-rule="evenodd" d="M2 9.99994C2 9.80103 2.07902 9.61027 2.21967 9.46961C2.36032 9.32896 2.55109 9.24994 2.75 9.24994H15.34L13.24 7.29994C13.1678 7.23297 13.1094 7.15243 13.0683 7.06291C13.0272 6.97339 13.0042 6.87666 13.0005 6.77823C12.9968 6.6798 13.0125 6.5816 13.0467 6.48924C13.0809 6.39688 13.133 6.31217 13.2 6.23994C13.3353 6.09408 13.5229 6.00791 13.7217 6.00041C13.8201 5.9967 13.9183 6.01241 14.0107 6.04664C14.1031 6.08088 14.1878 6.13297 14.26 6.19994L17.76 9.44994C17.8357 9.52015 17.8961 9.60524 17.9375 9.69988C17.9788 9.79452 18.0001 9.89668 18.0001 9.99994C18.0001 10.1032 17.9788 10.2054 17.9375 10.3C17.8961 10.3946 17.8357 10.4797 17.76 10.5499L14.26 13.7999C14.1141 13.9352 13.9205 14.007 13.7217 13.9995C13.5229 13.992 13.3353 13.9058 13.2 13.7599C13.0647 13.6141 12.993 13.4204 13.0005 13.2217C13.008 13.0229 13.0941 12.8352 13.24 12.6999L15.34 10.7499H2.75C2.55109 10.7499 2.36032 10.6709 2.21967 10.5303C2.07902 10.3896 2 10.1989 2 9.99994Z" fill="#CD7F32"/>
</svg>
