<svg width="38" height="36" viewBox="0 0 38 36" fill="none" xmlns="http://www.w3.org/2000/svg">
<path d="M8.99935 13.3334C8.99935 8.27076 13.1034 4.16671 18.166 4.16671C22.6505 4.16671 26.386 7.38868 27.1777 11.6445C27.2887 12.2413 27.7155 12.7305 28.2916 12.9216C31.6096 14.022 33.9993 17.1508 33.9993 20.8334C33.9993 25.4357 30.2684 29.1667 25.666 29.1667C24.7455 29.1667 23.9993 29.9129 23.9993 30.8334C23.9993 31.7538 24.7455 32.5 25.666 32.5C32.1093 32.5 37.3327 27.2767 37.3327 20.8334C37.3327 16.0126 34.4098 11.8783 30.2432 10.0993C28.8174 4.76338 23.9523 0.833374 18.166 0.833374C11.2625 0.833374 5.66602 6.42981 5.66602 13.3334C5.66602 13.5005 5.6693 13.6669 5.67583 13.8326C2.68348 15.559 0.666016 18.7924 0.666016 22.5C0.666016 28.0229 5.14317 32.5 10.666 32.5C11.5865 32.5 12.3327 31.7538 12.3327 30.8334C12.3327 29.9129 11.5865 29.1667 10.666 29.1667C6.98412 29.1667 3.99935 26.1819 3.99935 22.5C3.99935 19.7378 5.67964 17.3642 8.08043 16.3528C8.77516 16.0602 9.18695 15.3376 9.08467 14.5908C9.02849 14.1805 8.99935 13.7608 8.99935 13.3334Z" fill="#53595F"/>
<path d="M17.8921 21.2544C18.5236 20.693 19.4751 20.693 20.1066 21.2544L22.6066 23.4766C23.2946 24.0881 23.3566 25.1416 22.745 25.8295C22.21 26.4314 21.3368 26.5542 20.666 26.166V34.1667C20.666 35.0872 19.9198 35.8334 18.9993 35.8334C18.0789 35.8334 17.3327 35.0872 17.3327 34.1667V26.166C16.6618 26.5542 15.7886 26.4314 15.2537 25.8295C14.6421 25.1416 14.7041 24.0881 15.3921 23.4766L17.8921 21.2544Z" fill="#53595F"/>
</svg>
